<svg xmlns="http://www.w3.org/2000/svg" width="24" height="24" fill="none" viewBox="0 0 24 24"><path fill="#000" fill-rule="evenodd" d="M15 12.5H3V11.5H15V12.5Z" clip-rule="evenodd"/><path fill="#000" fill-rule="evenodd" d="M11.8536 8.14645L15.3536 11.6465C15.5489 11.8417 15.5489 12.1583 15.3536 12.3536L11.8536 15.8536L11.1465 15.1465L14.2929 12L11.1465 8.85356L11.8536 8.14645Z" clip-rule="evenodd"/><path fill="#000" fill-rule="evenodd" d="M8.5 4C8.5 3.72386 8.72386 3.5 9 3.5H21C21.2761 3.5 21.5 3.72386 21.5 4V20C21.5 20.2761 21.2761 20.5 21 20.5H9C8.72386 20.5 8.5 20.2761 8.5 20V17H9.5V19.5H20.5V4.5H9.5V7H8.5V4Z" clip-rule="evenodd"/></svg>