<svg id="a5728206-71b1-401d-ae0d-46fa3e976090" data-name="Layer 1" xmlns="http://www.w3.org/2000/svg" xmlns:xlink="http://www.w3.org/1999/xlink" viewBox="0 0 943.15 168.77"><defs><linearGradient id="e2503d5a-1eb5-4f6a-9bbc-f3a73ceb79cc" x1="15" y1="69.34" x2="104.25" y2="69.34" gradientUnits="userSpaceOnUse"><stop offset="0.01" stop-color="#344055"/><stop offset="1" stop-color="#101926"/></linearGradient></defs><path d="M27.86,11.77,15,23.77V126.92H91.39v-3.09l10-8.92h2.82V11.76ZM91.39,121.42V23.78H21.13l.46-.46.46-.45,4.9-4.8.46-.45.45-.45,1.3-1.27h.51V15.4l0-.05h71.13V113l-.1.1-2,1.81Z" transform="translate(-11.61 -11.76)" style="fill:url(#e2503d5a-1eb5-4f6a-9bbc-f3a73ceb79cc)"/><path d="M14.36,147.72V156a8,8,0,0,0,2.15,6,8.49,8.49,0,0,0,6.16,2.08,31.72,31.72,0,0,0,7.93-1V147.72h2.75V180H30.6V165.51a32.64,32.64,0,0,1-8.12,1.06c-3.55,0-6.24-1-8.1-2.87A10.64,10.64,0,0,1,11.61,156v-8.27Z" transform="translate(-11.61 -11.76)" style="fill:#444"/><path d="M43.69,180H41.28V156.62h2.51V176l13.29-19.42h2.47V180H57V160.24Z" transform="translate(-11.61 -11.76)" style="fill:#444"/><path d="M74.14,180H71.63V158.84H64.76v-2.22H81.05v2.22H74.14Z" transform="translate(-11.61 -11.76)" style="fill:#444"/><path d="M103.62,180h-2.51V177.2a10.23,10.23,0,0,1-7.93,3.34,8.52,8.52,0,0,1-5.7-2.1,7.8,7.8,0,0,1,0-11.36A8.63,8.63,0,0,1,93.18,165a10.15,10.15,0,0,1,7.93,3.33v-4.74a4.79,4.79,0,0,0-1.79-3.94,7,7,0,0,0-4.5-1.42,9.31,9.31,0,0,0-7.29,3.43L86.12,160a11.77,11.77,0,0,1,9-3.91,9.53,9.53,0,0,1,6.14,1.88,6.74,6.74,0,0,1,2.37,5.61Zm-9.57-1.4a8.42,8.42,0,0,0,7.06-3.19v-5.13A8.45,8.45,0,0,0,94.05,167a6.5,6.5,0,0,0-4.62,1.64,5.46,5.46,0,0,0-1.76,4.16,5.38,5.38,0,0,0,1.76,4.13A6.58,6.58,0,0,0,94.05,178.56Z" transform="translate(-11.61 -11.76)" style="fill:#444"/><path d="M113.86,180h-2.41V156.62H114V176l13.29-19.42h2.47V180H127.2V160.24ZM129,149.56a10,10,0,0,1-8.46,4.25,10.15,10.15,0,0,1-8.5-4.25l1.4-1.21a8.29,8.29,0,0,0,7.1,3.63,8.38,8.38,0,0,0,7.11-3.63Z" transform="translate(-11.61 -11.76)" style="fill:#444"/><path d="M144.31,180H141.8V158.84h-6.87v-2.22h16.29v2.22h-6.91Z" transform="translate(-11.61 -11.76)" style="fill:#444"/><path d="M166.78,180.54a11.17,11.17,0,0,1-8.41-3.43,12.28,12.28,0,0,1-3.28-8.85,12.47,12.47,0,0,1,3.21-8.67,10.38,10.38,0,0,1,8-3.55,9.93,9.93,0,0,1,8.07,3.55,13.38,13.38,0,0,1,3,8.82v.67H157.84a10.18,10.18,0,0,0,2.66,6.63,8.41,8.41,0,0,0,6.47,2.65,9.94,9.94,0,0,0,7.64-3.24l1.3,1.65A12.13,12.13,0,0,1,166.78,180.54Zm8-13.44a9.82,9.82,0,0,0-2.24-6.13,7.55,7.55,0,0,0-6.26-2.76,7.45,7.45,0,0,0-6.07,2.73,10.16,10.16,0,0,0-2.39,6.16Z" transform="translate(-11.61 -11.76)" style="fill:#444"/><path d="M215.93,180h-3.38l-9.33-11.12L198.87,173v7h-2.51V156.62h2.51V170l13.77-13.33H216L205.1,167.15Z" transform="translate(-11.61 -11.76)" style="fill:#444"/><path d="M223.27,180h-2.51V156.62h2.51v10.14h13.25V156.62H239V180h-2.51V169H223.27Z" transform="translate(-11.61 -11.76)" style="fill:#444"/><path d="M249.27,180h-2.41V156.62h2.51V176l13.29-19.42h2.46V180h-2.51V160.24Z" transform="translate(-11.61 -11.76)" style="fill:#444"/><path d="M288.27,156.62v2.22h-12.8V180H273V156.62Z" transform="translate(-11.61 -11.76)" style="fill:#444"/><path d="M295.91,180h-2.42V156.62H296V176l13.28-19.42h2.47V180h-2.51V160.24Z" transform="translate(-11.61 -11.76)" style="fill:#444"/><path d="M342,180.54a10.3,10.3,0,0,1-8.12-3.53,13.89,13.89,0,0,1,0-17.47,11.23,11.23,0,0,1,16.29,0,13.89,13.89,0,0,1,0,17.47A10.33,10.33,0,0,1,342,180.54Zm0-2.27a7.54,7.54,0,0,0,6.26-2.93,12,12,0,0,0,0-14.11,8.12,8.12,0,0,0-12.47,0,11,11,0,0,0-2.29,7,11.16,11.16,0,0,0,2.29,7.06A7.47,7.47,0,0,0,342,178.27Z" transform="translate(-11.61 -11.76)" style="fill:#444"/><path d="M362.21,180H359.7V156.62h2.51v10.14h13.24V156.62H378V180h-2.52V169H362.21Z" transform="translate(-11.61 -11.76)" style="fill:#444"/><path d="M382.75,180.54v-2.18c1.19,0,2.18-.77,3-2.32a25.94,25.94,0,0,0,1.91-7.78l1.55-11.64h14.88V180h-2.51V158.84h-10.1l-1.31,9.71q-.87,6.52-2.6,9.26A5.41,5.41,0,0,1,382.75,180.54Z" transform="translate(-11.61 -11.76)" style="fill:#444"/><path d="M429.24,180h-2.51V177.2a10.22,10.22,0,0,1-7.93,3.34,8.52,8.52,0,0,1-5.7-2.1,7.11,7.11,0,0,1-2.46-5.68,7,7,0,0,1,2.44-5.68A8.58,8.58,0,0,1,418.8,165a10.15,10.15,0,0,1,7.93,3.33v-4.74a4.79,4.79,0,0,0-1.79-3.94,7,7,0,0,0-4.49-1.42,9.33,9.33,0,0,0-7.3,3.43l-1.4-1.74a11.74,11.74,0,0,1,9-3.91,9.52,9.52,0,0,1,6.13,1.88,6.74,6.74,0,0,1,2.37,5.61Zm-9.57-1.4a8.42,8.42,0,0,0,7.06-3.19v-5.13a8.45,8.45,0,0,0-7.06-3.23,6.46,6.46,0,0,0-4.61,1.64,5.43,5.43,0,0,0-1.77,4.16,5.36,5.36,0,0,0,1.77,4.13A6.53,6.53,0,0,0,419.67,178.56Z" transform="translate(-11.61 -11.76)" style="fill:#444"/><path d="M439.49,180h-2.42V156.62h2.51V176l13.29-19.42h2.47V180h-2.52V160.24Zm15.17-30.4a10,10,0,0,1-8.46,4.25,10.16,10.16,0,0,1-8.5-4.25l1.4-1.21a8.77,8.77,0,0,0,14.21,0Z" transform="translate(-11.61 -11.76)" style="fill:#444"/><path d="M465.68,180h-2.51V156.62h2.51v10.14h13.24V156.62h2.51V180h-2.51V169H465.68Z" transform="translate(-11.61 -11.76)" style="fill:#444"/><path d="M514,180H501.78V156.62h12a6.46,6.46,0,0,1,4.62,1.62,5.71,5.71,0,0,1,1.71,4.37A5.49,5.49,0,0,1,519,166a5.26,5.26,0,0,1-2.64,1.9,5.49,5.49,0,0,1,3,2.13,5.9,5.9,0,0,1,1.21,3.58,6.16,6.16,0,0,1-1.76,4.64A6.7,6.7,0,0,1,514,180Zm-.63-13.15a4.11,4.11,0,0,0,3.07-1.11,3.92,3.92,0,0,0,1.08-2.85,4,4,0,0,0-1.08-2.92,4.14,4.14,0,0,0-3.07-1.09h-9v8Zm.1,10.88a4.51,4.51,0,0,0,3.26-1.14,4.12,4.12,0,0,0,1.18-3.12,4.44,4.44,0,0,0-1.18-3.09,4.18,4.18,0,0,0-3.26-1.3h-9.14v8.65Z" transform="translate(-11.61 -11.76)" style="fill:#444"/><path d="M543,180h-2.51V156.62H543v10.14h13.24V156.62h2.52V180h-2.52V169H543Z" transform="translate(-11.61 -11.76)" style="fill:#444"/><path d="M583.88,180h-2.51V177.2a10.21,10.21,0,0,1-7.92,3.34,8.56,8.56,0,0,1-5.71-2.1,7.11,7.11,0,0,1-2.46-5.68,7,7,0,0,1,2.44-5.68,8.61,8.61,0,0,1,5.73-2.05,10.15,10.15,0,0,1,7.92,3.33v-4.74a4.79,4.79,0,0,0-1.79-3.94,7,7,0,0,0-4.49-1.42,9.33,9.33,0,0,0-7.3,3.43l-1.4-1.74a11.75,11.75,0,0,1,9-3.91,9.55,9.55,0,0,1,6.14,1.88,6.77,6.77,0,0,1,2.36,5.61Zm-9.56-1.4a8.39,8.39,0,0,0,7-3.19v-5.13a8.43,8.43,0,0,0-7-3.23,6.48,6.48,0,0,0-4.62,1.64,5.43,5.43,0,0,0-1.76,4.16,5.35,5.35,0,0,0,1.76,4.13A6.56,6.56,0,0,0,574.32,178.56Z" transform="translate(-11.61 -11.76)" style="fill:#444"/><path d="M618.92,156.62h2.51V180H591.71V156.62h2.52v21.07h11.06V156.62h2.52v21.07h11.11Z" transform="translate(-11.61 -11.76)" style="fill:#444"/><path d="M639.6,180.54a11.15,11.15,0,0,1-8.4-3.43,12.24,12.24,0,0,1-3.29-8.85,12.47,12.47,0,0,1,3.21-8.67,10.41,10.41,0,0,1,8-3.55,9.93,9.93,0,0,1,8.07,3.55,13.33,13.33,0,0,1,3,8.82v.67H630.66a10.18,10.18,0,0,0,2.66,6.63,8.43,8.43,0,0,0,6.48,2.65,9.92,9.92,0,0,0,7.63-3.24l1.31,1.65A12.16,12.16,0,0,1,639.6,180.54Zm8-13.44a9.84,9.84,0,0,0-2.25-6.13,7.54,7.54,0,0,0-6.26-2.76,7.43,7.43,0,0,0-6.06,2.73,10.18,10.18,0,0,0-2.4,6.16Z" transform="translate(-11.61 -11.76)" style="fill:#444"/><path d="M659.08,180h-2.42V156.62h2.52V176l13.29-19.42h2.46V180h-2.51V160.24Zm15.18-30.4a10,10,0,0,1-8.46,4.25,10.18,10.18,0,0,1-8.51-4.25l1.4-1.21a8.77,8.77,0,0,0,14.21,0Z" transform="translate(-11.61 -11.76)" style="fill:#444"/><path d="M713.28,177a10.27,10.27,0,0,1-8.14,3.53,10,10,0,0,1-8.12-3.7,14.67,14.67,0,0,1-3-9.64q0-8.31,3-12.2t9.5-4.71a29.62,29.62,0,0,0,5.31-1.21c1-.39,1.45-.84,1.45-1.36h2.37a3,3,0,0,1-.7,2,5,5,0,0,1-2.15,1.38,21.6,21.6,0,0,1-2.61.79c-.77.18-1.8.37-3.09.56a17,17,0,0,0-6.09,1.93,8.25,8.25,0,0,0-3.17,3,16.88,16.88,0,0,0-1.47,4.3q3.13-5.66,9.13-5.65a9.89,9.89,0,0,1,7.86,3.5,14.05,14.05,0,0,1-.05,17.47Zm-8.14,1.26a7.51,7.51,0,0,0,6.25-3,11.23,11.23,0,0,0,2.3-7.11,11,11,0,0,0-2.3-7,8.08,8.08,0,0,0-12.44,0,10.88,10.88,0,0,0-2.32,7,11.17,11.17,0,0,0,2.3,7.11A7.44,7.44,0,0,0,705.14,178.27Z" transform="translate(-11.61 -11.76)" style="fill:#444"/><path d="M725.58,180h-2.42V156.62h2.51V176L739,156.62h2.47V180h-2.51V160.24Z" transform="translate(-11.61 -11.76)" style="fill:#444"/><path d="M767.26,177a10.27,10.27,0,0,1-8.14,3.53,10,10,0,0,1-8.12-3.7,14.67,14.67,0,0,1-3-9.64q0-8.31,3-12.2t9.5-4.71a29.4,29.4,0,0,0,5.31-1.21c1-.39,1.45-.84,1.45-1.36h2.37a3,3,0,0,1-.7,2,5,5,0,0,1-2.15,1.38,21.6,21.6,0,0,1-2.61.79c-.77.18-1.8.37-3.09.56a17,17,0,0,0-6.09,1.93,8.25,8.25,0,0,0-3.17,3,16.88,16.88,0,0,0-1.47,4.3q3.13-5.66,9.13-5.65a9.87,9.87,0,0,1,7.86,3.5,14.05,14.05,0,0,1,0,17.47Zm-8.14,1.26a7.51,7.51,0,0,0,6.25-3,11.23,11.23,0,0,0,2.3-7.11,11,11,0,0,0-2.3-7,8.08,8.08,0,0,0-12.44,0,10.88,10.88,0,0,0-2.32,7,11.17,11.17,0,0,0,2.3,7.11A7.46,7.46,0,0,0,759.12,178.27Z" transform="translate(-11.61 -11.76)" style="fill:#444"/><path d="M774.1,180.54v-2.18c1.19,0,2.18-.77,3-2.32a26.25,26.25,0,0,0,1.91-7.78l1.54-11.64h14.89V180H792.9V158.84H782.8l-1.31,9.71q-.87,6.52-2.61,9.26A5.4,5.4,0,0,1,774.1,180.54Z" transform="translate(-11.61 -11.76)" style="fill:#444"/><path d="M805.65,180h-2.41V156.62h2.51V176L819,156.62h2.47V180H819V160.24Z" transform="translate(-11.61 -11.76)" style="fill:#444"/><path d="M839.19,180.54a10.3,10.3,0,0,1-8.12-3.53,13.89,13.89,0,0,1,0-17.47,11.23,11.23,0,0,1,16.29,0,13.89,13.89,0,0,1,0,17.47A10.33,10.33,0,0,1,839.19,180.54Zm0-2.27a7.54,7.54,0,0,0,6.26-2.93,12,12,0,0,0,0-14.11,8.12,8.12,0,0,0-12.47,0,11,11,0,0,0-2.29,7,11.16,11.16,0,0,0,2.29,7.06A7.47,7.47,0,0,0,839.19,178.27Z" transform="translate(-11.61 -11.76)" style="fill:#444"/><path d="M863.69,180h-2.51V158.84h-6.86v-2.22H870.6v2.22h-6.91Z" transform="translate(-11.61 -11.76)" style="fill:#444"/><path d="M886.17,180.54a11.15,11.15,0,0,1-8.41-3.43,12.28,12.28,0,0,1-3.29-8.85,12.47,12.47,0,0,1,3.21-8.67,10.41,10.41,0,0,1,8.05-3.55,9.9,9.9,0,0,1,8.07,3.55,13.33,13.33,0,0,1,3,8.82v.67H877.23a10.12,10.12,0,0,0,2.65,6.63,8.43,8.43,0,0,0,6.48,2.65,10,10,0,0,0,7.64-3.24l1.3,1.65A12.15,12.15,0,0,1,886.17,180.54Zm8-13.44a9.78,9.78,0,0,0-2.25-6.13,7.53,7.53,0,0,0-6.26-2.76,7.45,7.45,0,0,0-6.06,2.73,10.1,10.1,0,0,0-2.39,6.16Z" transform="translate(-11.61 -11.76)" style="fill:#444"/><path d="M922.8,180h-3.38l-9.33-11.12L905.74,173v7h-2.51V156.62h2.51V170l13.77-13.33h3.34L912,167.15Z" transform="translate(-11.61 -11.76)" style="fill:#444"/><path d="M937.92,180.54a11.15,11.15,0,0,1-8.4-3.43,12.24,12.24,0,0,1-3.29-8.85,12.47,12.47,0,0,1,3.21-8.67,10.4,10.4,0,0,1,8-3.55,9.93,9.93,0,0,1,8.07,3.55,13.38,13.38,0,0,1,3,8.82v.67H929a10.18,10.18,0,0,0,2.66,6.63,8.41,8.41,0,0,0,6.48,2.65,9.92,9.92,0,0,0,7.63-3.24l1.31,1.65A12.16,12.16,0,0,1,937.92,180.54Zm8-13.44A9.89,9.89,0,0,0,943.7,161a7.54,7.54,0,0,0-6.26-2.76,7.42,7.42,0,0,0-6.06,2.73,10.18,10.18,0,0,0-2.4,6.16Z" transform="translate(-11.61 -11.76)" style="fill:#444"/><path d="M211.67,121.49H190.41L157.35,80.22l-8.56,10v31.28H131.51V23.54h17.28v46.7l38.52-46.7h21.41l-40,46.26Z" transform="translate(-11.61 -11.76)" style="fill:#344055"/><path d="M290.64,121.49H223.18V23.54h67.46V38.66H240.45V64.07h49.16V79.2H240.45v27.17h50.19Z" transform="translate(-11.61 -11.76)" style="fill:#344055"/><path d="M369,121.49H308.35V23.54h17.28v82.83H369Z" transform="translate(-11.61 -11.76)" style="fill:#344055"/><path d="M452.13,121.49H384.67V23.54h67.46V38.66H401.94V64.07H451.1V79.2H401.94v27.17h50.19Z" transform="translate(-11.61 -11.76)" style="fill:#344055"/><path d="M519.59,121.49H469.85V23.54h48.41q13.14,0,20.6,7.12a23.69,23.69,0,0,1,7.45,17.84,22.88,22.88,0,0,1-4.95,14.91A20.57,20.57,0,0,1,529.19,71a20.77,20.77,0,0,1,13.5,8.15,25,25,0,0,1,5.54,15.94q0,11.75-7.6,19.09T519.59,121.49Zm-4.87-57.42q6.49,0,10.19-3.53a12,12,0,0,0,3.69-9.1,12.24,12.24,0,0,0-3.69-9.25q-3.7-3.52-10.19-3.53h-27.6V64.07Zm.74,42.3q7.08,0,11.07-3.6t4-10.06a12.9,12.9,0,0,0-4-9.62q-4-3.89-11.07-3.89H487.12v27.17Z" transform="translate(-11.61 -11.76)" style="fill:#101926"/><path d="M647.57,108.94q-14.16,14.31-36.16,14.32t-36.17-14.32q-14.18-14.32-14.17-36.35t14.17-36.35q14.18-14.33,36.17-14.32t36.16,14.32q14.17,14.32,14.17,36.35T647.57,108.94Zm-36.16-1Q626,108,635,97.92t9-25.33q0-15.42-9-25.41t-23.62-10q-14.77,0-23.69,10t-8.94,25.41q0,15.42,8.94,25.41T611.41,108Z" transform="translate(-11.61 -11.76)" style="fill:#101926"/><path d="M760.5,108.94q-14.18,14.31-36.17,14.32t-36.16-14.32Q674,94.62,674,72.59t14.17-36.35q14.16-14.33,36.16-14.32T760.5,36.24q14.18,14.32,14.17,36.35T760.5,108.94Zm-36.17-1Q739,108,748,97.92t9-25.33q0-15.42-9-25.41t-23.62-10q-14.76,0-23.69,10t-8.93,25.41q0,15.42,8.93,25.41T724.33,108Z" transform="translate(-11.61 -11.76)" style="fill:#101926"/><path d="M871.51,121.49H850.25L817.18,80.22l-8.56,10v31.28H791.35V23.54h17.27v46.7l38.53-46.7h21.4l-40,46.26Z" transform="translate(-11.61 -11.76)" style="fill:#101926"/><path d="M916.67,123.26q-25.38,0-40-15.57l9.6-13.22A41.05,41.05,0,0,0,917.41,108q9.89,0,14.84-4t4.94-9.4q0-5.58-5.9-8.89A53.64,53.64,0,0,0,917,80.52q-8.41-1.9-16.9-4.55a32.73,32.73,0,0,1-14.4-9q-5.89-6.32-5.9-16.3,0-12.35,10-20.49t25.91-8.15q22.73,0,36.9,13.65L942.65,48.5q-11.22-11.16-28.49-11.16-7.67,0-12.17,3.3a10.47,10.47,0,0,0-4.51,8.89,7.58,7.58,0,0,0,3.18,6.17,25.06,25.06,0,0,0,8.19,4q5,1.55,11.14,3t12.26,3.6a56.58,56.58,0,0,1,11.14,5.21,23.94,23.94,0,0,1,8.19,8.52A25.13,25.13,0,0,1,954.76,93a27.78,27.78,0,0,1-9.6,21.74Q935.58,123.26,916.67,123.26Z" transform="translate(-11.61 -11.76)" style="fill:#101926"/></svg>